<?xml version="1.0" encoding="UTF-8" standalone="no"?>
<svg
   xmlns:dc="http://purl.org/dc/elements/1.1/"
   xmlns:cc="http://creativecommons.org/ns#"
   xmlns:rdf="http://www.w3.org/1999/02/22-rdf-syntax-ns#"
   xmlns:svg="http://www.w3.org/2000/svg"
   xmlns="http://www.w3.org/2000/svg"
   xmlns:sodipodi="http://sodipodi.sourceforge.net/DTD/sodipodi-0.dtd"
   xmlns:inkscape="http://www.inkscape.org/namespaces/inkscape"
   version="1.1"
   x="0px"
   y="0px"
   viewBox="0 0 64 44.97998"
   xml:space="preserve"
   id="svg3783"
   sodipodi:docname="camera.svg"
   width="64"
   height="44.97998"
   inkscape:version="0.92.3 (5aff6ba, 2018-11-25)"><metadata
     id="metadata3789"><rdf:RDF><cc:Work
         rdf:about=""><dc:format>image/svg+xml</dc:format><dc:type
           rdf:resource="http://purl.org/dc/dcmitype/StillImage" /><dc:title></dc:title></cc:Work></rdf:RDF></metadata><defs
     id="defs3787" /><sodipodi:namedview
     pagecolor="#ffffff"
     bordercolor="#666666"
     borderopacity="1"
     objecttolerance="10"
     gridtolerance="10"
     guidetolerance="10"
     inkscape:pageopacity="0"
     inkscape:pageshadow="2"
     inkscape:window-width="3767"
     inkscape:window-height="2133"
     id="namedview3785"
     showgrid="false"
     fit-margin-top="0"
     fit-margin-left="0"
     fit-margin-right="0"
     fit-margin-bottom="0"
     inkscape:zoom="16.915556"
     inkscape:cx="32"
     inkscape:cy="29.394877"
     inkscape:window-x="3913"
     inkscape:window-y="27"
     inkscape:window-maximized="1"
     inkscape:current-layer="svg3783" /><path
     d="M 59.870117,2e-7 H 23.879883 c -2.282715,0 -4.139649,1.856933 -4.139649,4.139648 v 3.729981 H 14.245117 V 3.9389652 H 5.433594 v 3.930664 H 4.140137 C 1.857422,7.8696292 0,9.7270502 0,12.009765 v 28.839844 c 0,2.277344 1.857422,4.130371 4.140137,4.130371 h 55.72998 C 62.147461,44.97998 64,43.126953 64,40.849609 v -30.9799798 -2 -3.729981 C 64,1.8569332 62.147461,2e-7 59.870117,2e-7 Z M 7.433594,5.9389652 h 4.811523 v 1.930664 H 7.433594 Z m -3.293457,3.930664 h 1.293457 v 0.0039 h 8.811523 v -0.0039 h 5.495117 9.45636 C 27.139099,11.600464 25.520508,13.772461 24.445068,16.202148 H 2 V 12.009765 C 2,10.82959 2.959961,9.8696292 4.140137,9.8696292 Z M 55.970215,23.279785 c 0,8.552246 -6.958008,15.509765 -15.510254,15.509765 -8.557617,0 -15.52002,-6.957519 -15.52002,-15.509765 0,-5.604004 3.038575,-10.791992 7.928711,-13.5380858 2.313477,-1.296387 4.938477,-1.981934 7.591309,-1.981934 2.652832,0 5.277832,0.685547 7.589844,1.981446 4.885254,2.7485348 7.92041,7.9365228 7.92041,13.5385738 z m 1.236572,-5.077637 H 62 V 34.65332 h -8.253418 c 2.626038,-3.063049 4.223633,-7.032104 4.223633,-11.373535 0,-1.745239 -0.269653,-3.451721 -0.763428,-5.077637 z M 27.165894,34.65332 H 2 V 18.202148 h 21.703735 c -0.494018,1.625794 -0.763794,3.332215 -0.763794,5.077637 0,4.341431 1.59845,8.310486 4.225953,11.373535 z m 32.704223,8.32666 H 4.140137 C 2.959961,42.97998 2,42.024414 2,40.849609 V 36.65332 h 27.140625 v -0.03198 c 3.056335,2.594055 7.004822,4.168213 11.319336,4.168213 4.372009,0 8.364929,-1.621521 11.436523,-4.280457 V 36.65332 H 62 v 4.196289 c 0,1.174805 -0.955566,2.130371 -2.129883,2.130371 z M 62,16.202148 H 56.46582 C 55.391296,13.772949 53.774109,11.601013 51.718384,9.8696292 H 62 Z M 48.781311,7.8696292 c -5.103882,-2.748597 -11.537842,-2.748597 -16.643555,0 H 21.740234 v -3.729981 c 0,-1.179687 0.959961,-2.139648 2.139649,-2.139648 H 59.870117 C 61.044434,2.0000002 62,2.9599612 62,4.1396482 v 3.729981 z"
     id="path3771"
     inkscape:connector-curvature="0" /><path
     d="m 29.122559,23.274902 c 0,6.25 5.084472,11.334473 11.334472,11.334473 6.25,0 11.334473,-5.084473 11.334473,-11.334473 0,-6.25 -5.084473,-11.334473 -11.334473,-11.334473 -6.25,0 -11.334472,5.084473 -11.334472,11.334473 z m 20.668945,0 c 0,5.146973 -4.1875,9.334473 -9.334473,9.334473 -5.146972,0 -9.334472,-4.1875 -9.334472,-9.334473 0,-5.146973 4.1875,-9.334473 9.334472,-9.334473 5.146973,0 9.334473,4.187501 9.334473,9.334473 z"
     id="path3773"
     inkscape:connector-curvature="0" /><rect
     x="51.896484"
     y="3.9389648"
     width="6.0498047"
     height="2"
     id="rect3775" /><rect
     x="7.6230469"
     y="12.066895"
     width="3.7836914"
     height="2"
     id="rect3777" /></svg>